# xmcd CD database file
#
# Track frame offsets:
#	150
#	24824
#	40981
#	54394
#	71591
#
# Disc length: 1194 seconds
#
# Revision: 0
# Processed by: cddbd v1.5.2PL0 Copyright (c) Steve Scherf et al.
# Submitted via: CDex 1.70beta2
#
DISCID=3704a805
DTITLE=CYTOKINE - THE OUT SIDE
DYEAR=2006
DGENRE=東方アレンジ
TTITLE0=おてんば恋娘の冒険
TTITLE1=Border of Life
TTITLE2=Phantom Ensemble
TTITLE3=夜が降りてくる　～Evening Star
TTITLE4=彼岸帰航　～Riverside View
EXTD=YEAR: 2006
EXTT0=
EXTT1=
EXTT2=
EXTT3=
EXTT4=
PLAYORDER=
